<svg version="1.1" id="Layer_1" xmlns="http://www.w3.org/2000/svg" xmlns:xlink="http://www.w3.org/1999/xlink" x="0px" y="0px"
	 width="100%" viewBox="0 0 1024 1024" enable-background="new 0 0 1024 1024" xml:space="preserve">
<path fill="#4E6B81" opacity="1.000000" stroke="none" 
	d="
M555.865479,425.757904 
	C554.775024,426.033112 553.684509,426.308289 551.917908,426.777527 
	C549.493103,427.302124 547.744507,427.632690 545.728882,427.681641 
	C539.092957,427.931976 532.725769,428.899475 526.354858,428.924164 
	C488.803925,429.069489 451.252106,428.981354 413.700684,429.036163 
	C411.806122,429.038910 409.912384,429.638306 407.574707,430.013000 
	C404.750519,430.015472 402.369934,429.964813 399.894745,429.524780 
	C398.121338,428.757355 396.449158,428.084351 394.762726,428.046539 
	C376.691650,427.641388 358.615601,427.441772 340.546326,426.976959 
	C319.356720,426.431915 298.172455,425.680206 276.640564,425.010529 
	C275.517029,424.637573 274.738770,424.272186 274.109253,423.631622 
	C274.857666,423.275024 275.457336,423.193604 276.304932,423.366516 
	C278.347412,423.457947 280.141937,423.294983 282.252136,423.067841 
	C282.997101,422.989136 283.426331,422.974640 284.292053,422.972656 
	C287.129669,422.702972 289.530731,422.420776 292.156433,422.071289 
	C292.381073,422.003967 292.848816,421.969818 293.075806,421.898621 
	C293.606903,421.688477 293.820526,421.463623 294.223541,421.102936 
	C294.690857,421.080536 294.878326,421.108002 295.328247,421.391907 
	C297.705383,421.477173 299.820038,421.306000 302.158752,421.070221 
	C302.382812,421.005585 302.847748,420.968750 303.075256,420.898682 
	C303.607422,420.689880 303.821045,420.464752 304.227173,420.108826 
	C304.699524,420.095581 304.888306,420.126770 305.353699,420.412445 
	C308.065460,420.488800 310.500580,420.310730 313.311035,420.053680 
	C315.147369,419.698395 316.608368,419.422089 318.352234,419.407471 
	C321.403992,419.485107 324.172852,419.301025 327.268280,419.048767 
	C328.038208,418.945709 328.481598,418.910767 329.158325,419.156555 
	C332.905273,419.004761 336.418915,418.572296 340.249359,418.074585 
	C340.997223,417.997040 341.428223,417.984741 342.082367,417.900726 
	C342.604004,417.691376 342.815247,417.470306 343.343384,417.089752 
	C344.841644,417.026886 345.935760,417.040100 347.295166,417.329926 
	C350.021576,417.442963 352.482697,417.279419 355.359039,417.052917 
	C358.204346,416.701569 360.634430,416.413147 363.366638,416.399078 
	C369.091095,416.492615 374.513367,416.311768 380.363586,416.065521 
	C384.213043,415.699768 387.634613,415.399414 391.355835,415.378845 
	C391.972260,415.755310 392.288940,415.936523 392.605743,415.936707 
	C436.223175,415.964264 479.840607,415.992737 523.457886,415.917816 
	C524.630371,415.915833 525.800964,414.788391 527.314758,414.105469 
	C528.123169,414.053925 528.589294,414.082642 529.301941,414.368408 
	C531.345398,414.459351 533.142273,414.293243 535.166748,414.063171 
	C535.394287,413.999176 535.865662,413.962646 536.278687,413.974182 
	C538.447876,413.393158 540.204102,412.800568 542.321411,412.067505 
	C546.154358,410.669037 549.626221,409.411011 553.098083,408.152954 
	C572.993408,400.474121 584.406677,385.791290 586.725830,364.872528 
	C588.891174,345.341736 582.440491,328.819580 564.930603,318.403351 
	C536.964539,301.766876 498.963654,314.501923 492.760742,346.849243 
	C491.449280,353.688354 492.569885,360.993835 491.799927,368.353027 
	C490.569031,363.661011 488.890259,359.035675 488.180389,354.266144 
	C483.778046,324.687225 505.307373,297.186615 535.238159,293.895020 
	C571.384338,289.919983 601.085938,312.369598 605.600220,348.378662 
	C609.322937,378.074127 595.555603,405.406281 568.559387,420.129700 
	C567.244995,420.846588 565.929993,421.562408 563.993042,422.560547 
	C560.869019,423.814148 558.367249,424.786011 555.865479,425.757904 
z"/>
<path fill="#4E6B82" opacity="1.000000" stroke="none" 
	d="
M424.989746,520.941162 
	C426.060760,520.992065 427.131775,521.042908 429.048126,521.093140 
	C446.498047,521.724243 463.083099,522.494751 479.001007,528.004822 
	C495.769653,535.570007 508.074860,547.335815 513.235046,565.407410 
	C522.079407,596.381592 506.764130,629.075439 474.075592,635.175842 
	C448.190399,640.006714 422.954926,627.622192 416.661346,599.816956 
	C415.448792,594.459839 416.487213,588.593140 417.528381,582.927063 
	C417.827728,585.646790 417.905487,588.412720 418.461243,591.078979 
	C423.070740,613.192322 443.140686,623.306824 463.621887,621.542908 
	C484.995850,619.702209 496.143158,605.134521 498.831207,589.567688 
	C502.202087,570.046814 493.191589,553.130920 475.083099,544.510620 
	C472.096008,543.088684 468.879974,542.147705 465.334869,540.854675 
	C464.899994,540.724915 464.844940,540.448547 464.715576,540.093018 
	C456.650208,536.736450 448.599823,534.717285 439.676605,536.936829 
	C438.518158,536.927734 437.745239,536.862000 436.866577,536.416260 
	C435.060974,535.691711 433.365448,535.070557 431.660614,535.043823 
	C406.422150,534.648438 381.182251,534.341736 355.943359,533.971191 
	C354.473602,533.949585 353.004211,533.345764 351.543182,533.379761 
	C344.682770,533.539124 337.825378,533.826843 330.715240,534.022827 
	C330.300751,533.926331 330.137878,533.875671 329.873779,533.443115 
	C324.825012,533.085571 319.877380,533.109924 314.611816,533.094604 
	C313.868622,533.081909 313.443390,533.108887 313.018127,533.135803 
	C312.842285,533.080505 312.666412,533.025208 312.133911,532.513855 
	C308.170074,532.074219 304.562836,532.090515 300.707031,532.050049 
	C300.297485,531.938843 300.136475,531.884338 299.875824,531.450195 
	C293.861145,530.381836 287.952301,529.626953 282.024902,529.069824 
	C281.041199,528.977417 279.976349,529.748169 278.618774,530.073608 
	C277.850067,529.957092 277.411591,529.886902 276.887146,529.456909 
	C274.521332,529.084106 272.241547,529.071045 269.961731,529.057983 
	C269.514954,529.019104 269.068176,528.980225 268.218628,528.525513 
	C265.754883,527.295166 263.693939,526.480774 262.017426,525.475342 
	C267.853821,524.885193 273.299774,524.351807 278.758698,524.110046 
	C303.170837,523.028625 327.586700,522.030457 352.001221,521.002197 
	C352.753876,521.031250 353.506531,521.060242 355.098877,521.072266 
	C378.955627,521.017212 401.972687,520.979187 424.989746,520.941162 
z"/>
<path fill="#4E6B81" opacity="1.000000" stroke="none" 
	d="
M561.996277,482.993347 
	C559.292358,482.977722 556.588501,482.962067 552.971313,482.961121 
	C517.001282,483.003418 481.944611,483.055511 446.887909,483.045105 
	C434.930267,483.041534 422.972656,482.880920 411.123169,482.487854 
	C410.870422,481.789520 410.510742,481.052032 410.148621,481.050842 
	C395.702087,481.003571 381.255310,481.013336 366.808746,481.068970 
	C366.227936,481.071198 365.649109,481.588989 364.608063,481.928406 
	C360.433319,482.007080 356.719910,482.023895 353.006470,482.040741 
	C352.257294,481.990814 351.508118,481.940887 349.949432,481.884430 
	C341.428650,481.598022 333.717346,481.318176 326.006073,481.038330 
	C325.560486,480.996033 325.114868,480.953705 323.913513,480.898560 
	C315.110168,480.292267 307.062622,479.698761 299.015045,479.105286 
	C298.570068,479.045776 298.125061,478.986267 296.945740,478.862915 
	C284.479523,477.235565 272.747650,475.672058 261.015747,474.108551 
	C260.634277,474.035065 260.252838,473.961578 259.804352,473.594788 
	C275.620239,472.095367 291.485535,470.514099 307.390045,469.769104 
	C332.599854,468.588196 357.835876,467.966644 383.361450,467.386200 
	C384.310181,467.774658 384.958191,467.981842 385.606293,467.982147 
	C423.142242,467.998901 460.678162,468.007019 498.214081,467.962524 
	C499.455322,467.961029 500.695953,467.408844 502.405457,467.047272 
	C530.001526,466.651978 557.138855,466.655396 584.252136,465.850250 
	C597.380005,465.460419 610.253845,462.657135 622.348694,457.112244 
	C622.348694,457.112244 622.691162,457.114288 623.200439,457.005280 
	C625.799377,455.914978 627.889099,454.933685 629.978760,453.952362 
	C637.919434,449.028656 645.860046,444.104980 654.426514,438.793213 
	C647.761108,451.444946 637.728333,460.006836 625.820984,467.645386 
	C623.702087,468.963501 622.125061,469.926178 620.547974,470.888855 
	C620.110107,471.001740 619.672180,471.114655 618.716064,471.525330 
	C600.400146,480.256775 581.364319,482.460785 561.996277,482.993347 
z"/>
<path fill="#5C7991" opacity="1.000000" stroke="none" 
	d="
M413.032074,414.436951 
	C425.711182,414.330750 438.390259,414.224548 451.535980,414.067566 
	C452.445404,414.060577 452.888245,414.104370 454.076874,414.136047 
	C456.219818,414.091553 457.616913,414.059174 459.014038,414.026794 
	C459.453064,414.070557 459.892059,414.114288 461.125092,414.146973 
	C471.267639,414.234833 480.616211,414.333740 490.298401,414.623322 
	C492.493652,414.778107 494.355286,414.742249 496.660217,414.691650 
	C500.665009,414.692841 504.226501,414.708801 508.206146,414.827820 
	C510.760071,414.770325 512.895813,414.609741 515.450989,414.403198 
	C517.558594,414.348022 519.246704,414.338776 521.120605,414.495941 
	C521.892029,414.524933 522.477783,414.387512 523.453308,414.210846 
	C524.886230,414.176331 525.929321,414.181061 526.972412,414.185791 
	C525.800964,414.788391 524.630371,415.915833 523.457886,415.917816 
	C479.840607,415.992737 436.223175,415.964264 392.605743,415.936707 
	C392.288940,415.936523 391.972260,415.755310 391.355835,415.378845 
	C393.704468,415.018097 396.352753,414.937164 399.907471,414.939087 
	C404.886627,414.826935 408.959351,414.631958 413.032074,414.436951 
z"/>
<path fill="#567187" opacity="1.000000" stroke="none" 
	d="
M483.455505,430.907715 
	C458.318878,430.660522 433.633392,430.360016 408.483093,430.009705 
	C409.912384,429.638306 411.806122,429.038910 413.700684,429.036163 
	C451.252106,428.981354 488.803925,429.069489 526.354858,428.924164 
	C532.725769,428.899475 539.092957,427.931976 545.349487,427.771545 
	C542.817749,428.748474 540.398499,429.353882 537.979187,429.959290 
	C537.534546,429.979736 537.089966,430.000214 535.866821,430.023254 
	C524.059326,430.354950 513.030273,430.684082 502.001190,431.013184 
	C499.959290,430.967560 497.917419,430.921967 495.106415,430.885651 
	C493.889374,430.924835 493.441467,430.954681 492.993530,430.984528 
	C489.964569,430.941162 486.935608,430.897827 483.455505,430.907715 
z"/>
<path fill="#567187" opacity="1.000000" stroke="none" 
	d="
M399.894745,429.524780 
	C377.639862,429.618896 355.290405,429.323639 332.475159,429.077820 
	C327.984863,429.081146 323.960327,429.035126 319.154694,428.721008 
	C311.253510,428.341370 304.133392,428.229858 297.013275,428.118347 
	C292.004547,428.064056 286.995789,428.009766 281.300537,427.627045 
	C279.396912,427.238403 278.179779,427.178223 276.962646,427.118042 
	C276.962646,427.118042 277.006195,426.956543 277.012512,426.580170 
	C277.007843,425.808563 276.996857,425.413330 276.985870,425.018097 
	C298.172455,425.680206 319.356720,426.431915 340.546326,426.976959 
	C358.615601,427.441772 376.691650,427.641388 394.762726,428.046539 
	C396.449158,428.084351 398.121338,428.757355 399.894745,429.524780 
z"/>

<path fill="#5C7991" opacity="1.000000" stroke="none" 
	d="
M330.966888,534.068726 
	C337.825378,533.826843 344.682770,533.539124 351.543182,533.379761 
	C353.004211,533.345764 354.473602,533.949585 355.943359,533.971191 
	C381.182251,534.341736 406.422150,534.648438 431.660614,535.043823 
	C433.365448,535.070557 435.060974,535.691711 436.401855,536.460815 
	C415.366302,536.624268 394.689667,536.363220 374.013062,536.102112 
	C370.983673,536.054932 367.954315,536.007690 364.148071,535.705200 
	C357.585449,535.336365 351.799683,535.222717 346.013885,535.109070 
	C341.349976,535.040710 336.686035,534.972290 331.528168,534.678345 
	C331.034210,534.452759 330.966888,534.068726 330.966888,534.068726 
z"/>
<path fill="#5C7991" opacity="1.000000" stroke="none" 
	d="
M397.402161,482.895081 
	C386.666473,482.628479 376.328003,482.302002 365.529419,481.921021 
	C365.649109,481.588989 366.227936,481.071198 366.808746,481.068970 
	C381.255310,481.013336 395.702087,481.003571 410.148621,481.050842 
	C410.510742,481.052032 410.870422,481.789520 411.123169,482.487854 
	C407.978210,482.828522 404.941376,482.864990 401.452087,482.949127 
	C399.932892,482.942932 398.866119,482.889069 397.402161,482.895081 
z"/>
<path fill="#5C7991" opacity="1.000000" stroke="none" 
	d="
M270.431519,427.038513 
	C265.604492,426.746643 261.215454,426.397186 256.826416,426.047699 
	C256.830353,425.810150 256.834259,425.572601 256.838196,425.335083 
	C259.957214,424.889862 263.076263,424.444672 266.602722,423.904358 
	C269.094147,423.871796 271.178101,423.934418 273.611298,423.951904 
	C274.738770,424.272186 275.517029,424.637573 276.640564,425.010529 
	C276.996857,425.413330 277.007843,425.808563 277.036011,426.499878 
	C274.991974,426.857635 272.930725,426.919250 270.431519,427.038513 
z"/>
<path fill="#5C7991" opacity="1.000000" stroke="none" 
	d="
M278.949005,530.119995 
	C279.976349,529.748169 281.041199,528.977417 282.024902,529.069824 
	C287.952301,529.626953 293.861145,530.381836 299.550476,531.507935 
	C298.887787,531.997620 298.450745,532.049927 298.013702,532.102234 
	C295.333435,532.038757 292.653198,531.975281 289.367950,531.617676 
	C288.179260,531.249146 287.595520,531.174622 287.011810,531.100098 
	C286.246887,531.060730 285.481995,531.021301 283.956848,530.993042 
	C281.780762,530.709473 280.364868,530.414734 278.949005,530.119995 
z"/>
<path fill="#5C7991" opacity="1.000000" stroke="none" 
	d="
M446.389404,537.957153 
	C444.289062,537.639221 442.564850,537.321045 440.451385,536.941528 
	C448.599823,534.717285 456.650208,536.736450 464.366272,540.012939 
	C463.435730,540.233948 462.725159,540.179382 462.014557,540.124817 
	C460.988098,540.072144 459.961639,540.019470 458.428711,539.729126 
	C457.622101,539.350525 457.321991,539.209595 457.021881,539.068726 
	C456.578003,539.029053 456.134094,538.989319 455.073730,538.694092 
	C452.642426,538.326355 450.827576,538.214111 449.012726,538.101929 
	C448.263641,538.053589 447.514587,538.005249 446.389404,537.957153 
z"/>
<path fill="#5C7991" opacity="1.000000" stroke="none" 
	d="
M314.929779,533.134216 
	C319.877380,533.109924 324.825012,533.085571 329.505920,533.501343 
	C328.497009,533.995239 327.754791,534.049072 327.012604,534.102844 
	C323.337341,534.047363 319.662079,533.991821 315.494110,533.719543 
	C315.001404,533.502808 314.929779,533.134216 314.929779,533.134216 
z"/>
<path fill="#5C7991" opacity="1.000000" stroke="none" 
	d="
M258.335693,528.006104 
	C255.932526,527.532288 253.866760,527.058716 251.800980,526.585083 
	C251.808441,526.402039 251.815887,526.218994 251.823349,526.035950 
	C254.811600,525.905396 257.799866,525.774780 261.210541,525.655273 
	C263.693939,526.480774 265.754883,527.295166 267.888550,528.460815 
	C267.530396,528.852844 267.099487,528.893738 266.050751,528.704956 
	C263.627106,528.359009 261.821259,528.242554 260.015442,528.126099 
	C259.567993,528.086243 259.120544,528.046326 258.335693,528.006104 
z"/>
</svg>